<svg width="40" height="40" viewBox="0 0 40 40" fill="none" xmlns="http://www.w3.org/2000/svg">
<rect width="40" height="40" rx="12" fill="#001024" fill-opacity="0.04"/>
<path d="M16.0829 10.611L18.0096 13.4323C18.4376 14.0592 18.3272 14.9074 17.7533 15.404L16.2828 16.6763C15.8814 17.0236 15.7572 17.5941 15.978 18.0769C16.4495 19.1082 17.2859 20.2422 18.521 21.4773C19.7566 22.713 20.8914 23.55 21.924 24.0223C22.4067 24.2431 22.9772 24.119 23.3247 23.7175L24.5966 22.2474C25.0931 21.6734 25.9413 21.563 26.5682 21.9909L29.3481 23.888C30.0296 24.353 30.2048 25.2823 29.74 25.9636C29.4996 26.2927 29.222 26.6696 28.9633 27.0145C27.8214 28.5371 26.0362 29.3038 23.7881 28.8878C21.5847 28.48 18.9672 26.9467 16.0095 23.9889C13.0518 21.0311 11.519 18.4141 11.1119 16.2112C10.6964 13.9635 11.4639 12.1791 12.9863 11.0372L13.9949 10.2891C14.6602 9.80144 15.5951 9.94574 16.0829 10.611Z" fill="#3C3C43" fill-opacity="0.64"/>
</svg>
