<svg width="40" height="40" viewBox="0 0 40 40" fill="none" xmlns="http://www.w3.org/2000/svg">
<rect width="40" height="40" rx="12" fill="#001024" fill-opacity="0.04"/>
<path d="M10.0493 20.9999H15.5272C15.7062 24.2688 16.7574 27.3053 18.452 29.8809C13.9876 29.1871 10.5001 25.5402 10.0493 20.9999ZM10.0493 18.9999C10.5001 14.4597 13.9876 10.8128 18.452 10.119C16.7574 12.6946 15.7062 15.7311 15.5272 18.9999H10.0493ZM29.9506 18.9999H24.4726C24.2936 15.7311 23.2425 12.6946 21.5479 10.119C26.0123 10.8128 29.4998 14.4597 29.9506 18.9999ZM29.9506 20.9999C29.4998 25.5402 26.0123 29.1871 21.5479 29.8809C23.2425 27.3053 24.2936 24.2688 24.4726 20.9999H29.9506ZM17.5307 20.9999H22.4692C22.2976 23.7828 21.4146 26.3732 19.9999 28.5915C18.5852 26.3732 17.7023 23.7828 17.5307 20.9999ZM17.5307 18.9999C17.7023 16.2171 18.5852 13.6267 19.9999 11.4084C21.4146 13.6267 22.2976 16.2171 22.4692 18.9999H17.5307Z" fill="#3C3C43" fill-opacity="0.64"/>
</svg>
